<?xml version='1.0' encoding='utf-8'?>
<svg xmlns="http://www.w3.org/2000/svg" version="1.1" viewBox="0 0 512 512"> <path d="m512 0v512h-512v-512h512z" fill="#fff"/> <path d="m401.18 181.2q-10.86-0.71-17.72-1.5-11.87-1.36-31.96 0.44a0.49 0.48-17.8 0 0-0.38 0.73q5.43 9.25 13.13 15.82 1.53 1.31 5.14 1.91 24.72 4.14 48.18 13.56a0.16 0.16 0 0 1 0.09 0.21v0.01a0.2 0.2 0 0 1-0.25 0.12q-16.89-6.05-35.67-9.95-7.85-1.62-11.91-2.52a0.16 0.16 0 0 0-0.11 0.29c2.08 1.15 5.17 2.36 4.5 5.43-0.69 3.18-4.31 6.38-6.53 8.47a0.55 0.54 41.8 0 0 0.05 0.83c2.64 2.04 1.33 4.77-0.16 6.88a0.54 0.54 0 0 0 0.21 0.8q15.55 7.48 29.43 17.51a0.14 0.13 36.9 0 1 0.03 0.18l-0.01 0.01a0.12 0.12 0 0 1-0.17 0.03q-14.49-9.28-30.31-16.71a0.83 0.82 37.1 0 0-0.88 0.12q-12.91 11.17-20.91 17.58-18.18 14.53-38.53 23.9a0.64 0.64 0 0 0-0.27 0.93q7.92 12.39 14.11 23.93c9.14 17.08 17.3 36.72 12.93 56.44q-3.19 14.38-14.87 22.74a0.75 0.74-54.2 0 0 0.21 1.32q15.03 4.67 26.52-3.24c12.38-8.52 13.14-25.4 11.68-38.72q-1.35-12.27-2.02-18.51-0.98-9.15-0.62-14.05c0.93-12.99 4.54-25.43 14.04-34.91q13.48-13.45 34.11-12.95c10.92 0.27 20.92 4.81 25.31 15.26 5.78 13.76-3.84 27.21-18.66 27.02-5.63-0.07-10.45-0.17-14.79 2.54-7.68 4.78-7.31 15.3-7.03 23.09q0.12 3.47 1.05 9.51 1.53 10 1.91 14.75c0.86 11.01 0.35 21.78-3.9 32.74-6.16 15.87-20.5 26.84-37.15 29.75q-16.08 2.82-33.15-3.72a0.45 0.45 0 0 0-0.6 0.32q-4.09 16.92-11.1 32.45a0.54 0.54 0 0 0 0.44 0.75c9.5 0.97 19.35 8.47 17.98 19.15-0.98 7.66-9.24 10.49-16.07 11.01q-14.19 1.07-28.29-0.85-6.48-0.89-10.91-2.68c-8.07-3.27-4.69-14.52-4.59-20.92q0.15-10.53-0.03-12.52-0.73-7.93-1.07-14.68a0.49 0.49 0 0 0-0.51-0.47l-16.52 0.43a0.55 0.54 6.2 0 0-0.52 0.41q-0.28 1.09-0.74 5.34-1.1 10.16-0.07 31.53c0.24 4.87-0.48 9.35-5.71 11.26q-3.73 1.36-8.82 2.09-15.07 2.18-30.45 1.06-3.75-0.27-8.52-1.94-9.3-3.24-8.08-13.04c1.14-9.14 10.11-14.67 18.79-15.26a0.52 0.52 0 0 0 0.43-0.75q-12.5-25.06-15.8-52.45-1.39-11.61-0.04-30.87a0.53 0.52 7.9 0 0-0.43-0.56q-5.2-0.94-7.51-1.91c-10.92-4.58-15.63-14.92-15.11-26.12 0.6-12.92 6.44-25.57 12.8-36.5q5.41-9.33 12.07-19.33a0.5 0.49 29.9 0 0-0.2-0.72c-19.34-9.37-36.71-22.84-51.67-38.08a1.75 1.75 0 0 0-1.99-0.35q-13.09 6.15-28.21 15.22-0.08 0.05-0.16 0.1-2.05 1.31-0.08-0.11 13.15-9.41 28.12-16.73a0.44 0.44 0 0 0 0.12-0.7c-2.27-2.33-4.37-5.38-0.93-8.12a0.57 0.57 0 0 0 0.04-0.86q-2.26-2.16-4.24-4.27c-1.95-2.07-3.7-6.38-0.41-8.12a0.23 0.23 0 0 0-0.15-0.43q-21.83 4.19-43.17 11.41a0.2 0.2 0 0 1-0.25-0.12 0.17 0.17 0 0 1 0.1-0.22q23.38-9.14 48.2-13.64 1.58-0.28 3.15-1.61 8.1-6.85 14.06-16.19a0.35 0.35 0 0 0-0.26-0.53q-13.81-1.34-28.46-0.7-11.9 0.53-25.59 1.92 8.81-1.82 20.36-2.69 11.55-0.88 16.23-0.81c7.32 0.11 12.15-0.28 17.98 0.67a1.51 1.5-70.4 0 0 1.55-0.74l18.37-31.82a0.43 0.39 57.5 0 0 0.05-0.29q-6.37-29.38-4.2-57.46 0.37-4.69 1.91-10.77c1.23-4.83 3.54-7.38 8.53-5.61q3.88 1.39 7.71 4.02 14.15 9.72 25.92 22.71a0.55 0.55 0 0 0 0.88-0.09q6.35-10.5 18.12-14.81a0.48 0.48 0 0 1 0.64 0.37l1.6 9.48a1.03 1.02 81.7 0 1-0.88 1.19q-9.63 1.24-17.28 5.93a0.46 0.46 0 0 0-0.11 0.69l7.37 8.89a1.66 1.65-25.3 0 0 1.61 0.57q30.36-6.13 60.16-0.19a1.05 1.04-64 0 0 1-0.35l7.22-8.52a0.43 0.42 36.1 0 0-0.1-0.63q-8.19-5.32-17.87-6.54a0.76 0.76 0 0 1-0.66-0.84l1.08-9.15a1.1 1.1 0 0 1 1.51-0.89q12.03 4.9 17.66 15.55a0.46 0.46 0 0 0 0.72 0.13q0.05-0.05 5.64-5.74c8.86-9.03 19.2-18.25 30.47-22.53a2.13 2.12-52.5 0 1 0.97-0.13q4.21 0.41 5.48 5.34 1.94 7.56 2.41 14.97 1.8 28.23-4.42 55.66a0.28 0.24 40.9 0 0 0.02 0.14l16.88 31.02a0.85 0.84-16.2 0 0 0.81 0.44c1.06-0.09 3.13-0.53 4.43-0.56q7.21-0.15 19.66-0.05c5.95 0.04 11.15 0.93 17.66 1.09a3.17 3.07 54 0 1 0.92 0.16q2.82 0.93 3.1 0.58 1.5-1.92 5.56-0.69a1.09 1.09 0 0 1-0.38 2.13z" fill="#020202"/> <g fill="#fff"> <path d="m240.8 152.66q-1.44-0.99-2.36-0.55a0.66 0.64 1 0 0-0.29 0.27q-3.65 6.18-9.88 8.6c-13.83 5.38-27.06 1.8-33.73-11.69q-0.54-1.08-2.72-0.45 1.11-16.96 17.61-23.15 10.63-3.99 21.01 1.51a0.34 0.34 0 0 1-0.06 0.62c-17.4 5.26-4.66 29.81 10.73 16.7a0.34 0.33-23.7 0 1 0.55 0.21q0.4 3.73-0.86 7.93z"/> <path d="m308.11 146.37q-2.52 3.53-4.81 6.68-3.19 4.37-5.54 6c-8.32 5.8-18.96 5.55-28.05 1.14a3.25 3.22-10.3 0 1-0.73-0.5l-10.06-9.41q-2.02-13.4 7.62-20.8c8.45-6.48 18.84-6.88 28.26-2.21a0.24 0.24 0 0 1-0.1 0.45c-6.68 0.18-10.81 5.37-9.95 11.87 0.77 5.82 6.69 9.67 12.39 8.33q8.04-1.89 8.14-10.34a0.14 0.14 0 0 1 0.27-0.06q2.35 4.94 2.56 8.85z"/> <path d="m295.62 134.13a3.49 3.49 0 0 1-3.49 3.49 3.49 3.49 0 0 1-3.49-3.49 3.49 3.49 0 0 1 3.49-3.49 3.49 3.49 0 0 1 3.49 3.49z"/> <path d="m232.77 134.45a3.49 3.49 0 0 1-3.49 3.49 3.49 3.49 0 0 1-3.49-3.49 3.49 3.49 0 0 1 3.49-3.49 3.49 3.49 0 0 1 3.49 3.49z"/> <path d="m264.79 173.78q-1.69-0.35-2.8-0.67-9.91-2.86-20.01-0.94-2.55 0.49-6.74 1.89 1.03-2.57 4.14-3.47c6.18-1.8 21.35-3.32 25.41 3.19z"/> <path d="m416.82 259.39q-12.86-4.91-23.75-1.83-4.11 1.17-11.11 4.21c0.3-4.18 2.52-4.72 6.43-5.88q7.96-2.35 16.91-1.42 6.63 0.69 11.52 4.92z"/> </g> <g fill="#020202"> <path d="m181.8 85.55q13.83 13.74 20.2 32.25 0.22 0.61 0.12 1.1a0.51 0.51 0 0 1-0.83 0.29q-4.79-4.1-10.72-6.46a0.26 0.26 0 0 0-0.3 0.39l4.2 5.79a0.91 0.9 71.9 0 1-0.73 1.44h-3.8a0.13 0.13 0 0 0-0.09 0.23l4.24 3.59a1.2 1.2 0 0 1-0.16 1.94q-7.31 4.39-10.99 9.55-0.46 0.02-0.93 0.05-0.16-0.59 0.02-0.94 3.07-5.98 8.72-9.42a0.49 0.49 0 0 0 0.07-0.79q-1.47-1.23-4.26-3.36a1.59 1.32 35.9 0 1-0.49-1.93q1.04-1.6 4.23-1.42a0.3 0.3 0 0 0 0.26-0.47l-4.84-6.66a0.55 0.55 0 0 1 0.44-0.87h3.82a0.68 0.62 55.9 0 1 0.29 0.07l6.68 3.18a0.19 0.19 0 0 0 0.25-0.25q-7.27-15.81-19.15-28.65-0.94-1.02-2.07-1.84-0.41-0.36-0.55-0.68a0.26 0.26 0 0 1 0.39-0.32l5.98 4.19z"/> <path d="m326.15 82.48q-13.35 13.3-21.32 30.42a0.14 0.14 0 0 0 0.19 0.19l6.99-3.12a0.98 0.95 30 0 1 0.36-0.09l3.27-0.23a0.67 0.66-74.7 0 1 0.59 1.04l-4.42 6.49a0.45 0.45 0 0 0 0.41 0.7q3.19-0.28 4.11 1.79a0.86 0.86 0 0 1-0.16 0.95q-2.08 2.22-4.62 3.58a0.65 0.64-43.6 0 0-0.03 1.12q6.29 3.77 9.05 10.94l-3.53-3.2q-3.35-3.62-8.67-6.74a1.44 1.44 0 0 1-0.19-2.35l4.17-3.45a0.24 0.24 0 0 0-0.17-0.43l-3.54 0.25a0.93 0.92 15.1 0 1-0.83-1.44l4.31-6.32a0.15 0.15 0 0 0-0.19-0.22q-6.05 2.73-11.3 6.99a0.46 0.46 0 0 1-0.74-0.46q0.89-3.5 1.96-6.02 6.81-15.96 19.18-27.74l4.78-3.21a0.26 0.26 0 0 1 0.41 0.22q0 0.14-0.07 0.34z"/> </g> <g fill="#fc8f17"> <path d="m321.03 85.13q-12.37 11.78-19.18 27.74-1.07 2.52-1.96 6.02a0.46 0.46 0 0 0 0.74 0.46q5.25-4.26 11.3-6.99a0.15 0.15 0 0 1 0.19 0.22l-4.31 6.32a0.93 0.92 15.1 0 0 0.83 1.44l3.54-0.25a0.24 0.24 0 0 1 0.17 0.43l-4.17 3.45a1.44 1.44 0 0 0 0.19 2.35q5.32 3.12 8.67 6.74 1.12 2.09 1.92 3.9 1.23 2.83 1.82 3.93c2.14 3.99 3.29 5.72 4.83 9.78q1.82 4.77 8.57 20.77 0.11 0.28 1.86 3.56 1.27 2.4 0.95 4.74l-25.98 4.63a0.36 0.29-29.4 0 1-0.18-0.03l-16.6-7.65a0.19 0.19 0 0 1 0.08-0.37q6.68 0.03 12.51-3.7a0.32 0.32 0 0 0-0.27-0.57q-7.71 2.73-16.11 1.61a0.21 0.2-48.1 0 1-0.02-0.4c11.76-3.03 20.18-10.1 21.64-22.47 0.71-5.95-1.87-13.21-5.86-18.27q-9.02-11.46-23.59-11.86c-6.65-0.19-13.47 2.16-18.21 6.27q-11.89 10.31-7.85 26.35c2.26 8.99 9.13 15.04 17.05 18.83a0.09 0.09 0 0 1-0.05 0.17l-5.44-0.64a1.32 1.27 70.2 0 1-0.79-0.39c-7.35-7.51-23.42-6.23-31.94-2.36q-0.69 0.31-2.63 2.23a1.84 1.84 0 0 1-1.15 0.52l-3.84 0.26a0.27 0.27 0 0 1-0.14-0.51q13.32-6.23 16.7-20.58 1.34-5.69-0.16-10.55-4.95-16.11-21.27-19.06-12.35-2.24-23.27 5.84-10.38 7.68-11.23 20.46c-0.87 13.36 8.35 22.52 20.61 25.74a0.17 0.17 0 0 1-0.03 0.34q-8.18 0.76-15.55-1.4a0.31 0.3-20.7 0 0-0.25 0.55q5 3.16 12.22 3.63a0.09 0.09 0 0 1 0.04 0.17l-15.99 7.15a3 2.97-51 0 1-1.84 0.2q-10.09-2.15-22.11-3.84-2.59-0.37-5.18-0.44l1.5 0.03a0.78 0.77 12.7 0 0 0.72-0.45l20.41-43.52q3.68-5.16 10.99-9.55a1.2 1.2 0 0 0 0.16-1.94l-4.24-3.59a0.13 0.13 0 0 1 0.09-0.23h3.8a0.91 0.9 71.9 0 0 0.73-1.44l-4.2-5.79a0.26 0.26 0 0 1 0.3-0.39q5.93 2.36 10.72 6.46a0.51 0.51 0 0 0 0.83-0.29q0.1-0.49-0.12-1.1-6.37-18.51-20.2-32.25 1.59-1.04 2.58-0.2 9.15 7.73 11.15 10.14 4.48 5.37 9.26 10.47 3.2 3.41 6.79 10.41l-2.58 1.46a0.23 0.22 30.4 0 0 0.11 0.42l2.26 0.03q0.97 1.48 3.08 1.1 9.91-1.8 16.91-2.38 11.42-0.93 13.3-1.01 6.9-0.28 13.35 0.29 6.09 0.54 8.65 0.41c6.88-0.35 15.05 1.09 21.03 1.94q1.4 0.2 4.52-0.29l1.29 0.02a0.28 0.28 0 0 0 0.2-0.48q-0.76-0.8-1.95-1.17 0.75-0.5 0.26-0.96a1.57 1.45-48.4 0 1-0.04-2.05q2.58-3.12 4.46-6.38a5.3 4.92-10.9 0 1 0.58-0.79q5.19-5.57 10.76-12 1.03-1.19 5.79-5.21a2.8 1.41-42.3 0 0 0.29-0.27q3.93-4.21 5.67-4.92 0.65-0.27 1.51 1z"/> <path d="m152.41 195.37 9.01-14.19 24.92 3.96a0.26 0.26 0 0 1 0.13 0.46l-9.44 7.81a0.89 0.82 20.8 0 1-0.5 0.2l-24.12 1.76z"/> <path d="m338.66 181.35 8.97 14.14-25.06-1.78a0.96 0.95 66.5 0 1-0.55-0.22l-9.17-7.77a0.14 0.14 0 0 1 0.07-0.25l25.74-4.12z"/> <path d="m132.08 206.38q7.68-1.5 9.51-2.79 4.26-3.02 8.55-6.2l24.74-2.32a0.42 0.42 0 0 1 0.35 0.69q-4.86 5.7-6.94 12.79a0.98 0.98 0 0 1-0.59 0.63l-21.88 8.18a0.68 0.66-39.6 0 1-0.59-0.05q-7.14-4.29-13.15-10.93z"/> <path d="m349.95 197.39q6.82 7.37 17.28 9.54-4.82 5.31-11.08 9.47a1.54 1.53-51.6 0 1-1.38 0.16l-23.96-8.7a1.75 1.75 0 0 1-1.03-1.03q-2.19-6.02-6.05-11.12a0.32 0.32 0 0 1 0.26-0.51q13.08 0.39 25.96 2.19z"/> <path d="m357.16 220.09q-9.21 4.96-17.09 11.04c-5.52 4.26-9.79 6.71-15.57 9.63q-3.85 1.94-7.27 3.01c9.46-8.96 15.67-20.11 13.43-33.51a0.54 0.53 5.2 0 1 0.71-0.59l21.71 7.89a0.6 0.59 51.6 0 1-0.13 1.15q-1.28 0.15-1.7 0.8a0.39 0.38-73.6 0 0 0.32 0.6l5.59-0.02z"/> <path d="m182.8 245.26q-13.07-5.28-21.29-11.26-7.45-5.42-14.86-10.88a5.65 5.54 73.6 0 0-1.2-0.67l-3.8-1.57q2.53-1.23 6.05-0.73a0.41 0.4 3.8 0 0 0.46-0.39q0-0.36-0.55-0.64a0.45 0.45 0 0 1 0.05-0.83l19.54-7.31a0.43 0.42-6.4 0 1 0.57 0.45q-1.28 9.89 3.22 18.84 4.02 8 11.81 14.99z"/> <path d="m213.69 243.17q-1.23 2.03-1.84 4.45a0.39 0.39 0 0 0 0.7 0.31q1.08-1.65 1.86-1.79 5.76-4.14 11.5-7.64 3.4-2.07 6.36-3.02 2.56-0.82 6.68-2.28 6.92-2.43 14.14-0.94a0.22 0.21 23.4 0 0 0.22-0.08q0.09-0.12 0.18-0.22 0.67 0.56 0.65 0.73l-3.09 3.19a3.35 3.29-80.7 0 1-0.94 0.69l-12.7 6.28-7.17 2.74a0.41 0.41 0 0 0 0.2 0.79q3.89-0.46 8.3-0.32c4.44 0.15 8.66 3.67 8.21 8.37a0.49 0.49 0 0 1-0.67 0.41q-5.81-2.36-11.22 1.36a0.41 0.41 0 0 0 0.31 0.74q4.69-0.98 9.03 0.35 5.13 1.58 7.22 6.83l-11.65 6.55q-0.61-2.15-1.75-3.16a0.63 0.63 0 0 0-1.03 0.6l0.46 2.05q-2.81 2.21-4.74 5.27c-2.27 3.59-6.85 5.06-9.43 6.4a3.29 3.28 83.1 0 0-1.68 2.15q-3.95 16.78-12.84 31.47-4.26 7.05-12.14 12.85-10.92 8.05-24.47 3.7-1.98-8.24-0.15-17.04c1.14-5.41 3.79-10.77 5.23-16.38q0.18-0.68 1.89-4.11 3.2-6.43 5.95-11.99 2.81-5.7 6.08-11.07 2.41 0.18 4.68 2a1.49 1.47 12.9 0 1 0.5 0.78l0.84 3.37q-4.25 8.68-9.91 16.69a1.74 1.71-83.2 0 1-0.75 0.6c-3.31 1.33-5.77 2.39-7.34 5.37a0.23 0.23 0 0 0 0.32 0.31l4.72-2.57a0.36 0.36 0 0 1 0.46 0.53q-3.39 4.76-5.03 10a0.38 0.37 21.4 0 0 0.2 0.44q0.69 0.34 1.2-0.93 1.86 0.14 4.14-2.13c3.89-3.87 7.02-6.68 9.71-11.17q6.82-11.36 10.54-24.68-0.65-2.57-1.32-5.34c-1.2-4.97-0.41-9.57-1.62-14.29q-1.32-5.16-4.01-9.71-0.51-0.87-4.82-5.44-2.59-2.74-4.41-5.96 11.52-4.23 18.61 3.44c1.79 1.94 3.22 4.82 4.58 7.28a2.89 2.85 26.1 0 1 0.28 0.8q0.23 1.37 0.77 2.37z"/> <path d="m377.73 267.39q0.17 8.2 7.35 8.89a2.21 2.21 0 0 1 1.99 2.28l-0.14 4.01q-8.69 6.54-10.14 17.97-1.45 11.44 0.21 21.96c2.33 14.66 3.7 31.41-3.3 45.01-9.77 19-29.27 24.72-49.24 19.9a1.53 1.52-81.4 0 1-1.16-1.58l0.49-7.87q13.66 1.63 25.48-5.95 9.56-5.4 13.98-15.78 1.98-4.64 3.37-12.24 0.45-2.42 0.55-10.61c0.13-10.02-1.92-19.4-2.07-29.32q-0.11-7.34 1.38-16.81c0.64-4.05 2.67-8.51 4.33-11.59q2.66-4.92 6.92-8.27z"/> <path d="m327.65 342.77q-1.13 10.32-9.46 19.44a0.49 0.49 0 0 1-0.85-0.32q-0.82-36.05-15.74-69.54a0.14 0.14 0 0 0-0.14-0.08l-0.55 0.03a0.31 0.31 0 0 0-0.27 0.4q2.13 7.01 7.19 27.58 6.1 24.76 5.75 48.48-0.1 6.55-1.57 17.5-0.99 7.33-3.81 17.19-4.61 16.15-11.47 30.65a1.25 1.22 5.3 0 1-0.84 0.68c-6.01 1.36-11.43 2.61-15.53 6.88a0.34 0.34 0 0 0 0.37 0.55c9.66-4.16 27.96-8.07 34.83 3.22q1.13 1.85 1.27 3.99a0.29 0.28 30.3 0 1-0.54 0.14q-1.77-3.68-4.85-5.28a0.39 0.39 0 0 0-0.51 0.56q2.77 4.19 3.72 9.06a0.82 0.82 0 0 1-0.51 0.93l-3.77 1.41a0.64 0.64 0 0 1-0.86-0.53q-0.85-8.27-7.65-12.05a0.54 0.53 81.7 0 0-0.63 0.85q3.22 3.17 4.62 8.14l-13.47-0.51q-1.16-3.02-3.63-4.97a0.52 0.52 0 0 0-0.8 0.59l1.79 4.84q-11.12-0.61-21.75-4.21 0.9-15.94-0.04-32.15c4.19-2.33 11.4-6.21 12.41-11.31l3.92-2.17a0.35 0.35 0 0 0-0.25-0.64q-8.53 1.91-16.29 2.5c-16.64 1.26-31.09 0.73-46.41-2.44a0.31 0.31 0 0 0-0.22 0.57l3.36 2.02q0.64 3.19 2.08 4.21 5.14 3.59 10.15 7.38a1.14 1.14 0 0 1 0.44 0.79l0.18 1.63q-1.19 14.53 0.13 29.25-2.95 1.55-5.07 2.13-8.07 2.25-17.35 1.99l1.2-4.25a0.24 0.24 0 0 0-0.37-0.27q-2.85 1.93-3.85 5.56-3.54-0.87-8.2-0.96-2.08-0.04-4.66-1.02 1.47-4.05 4.35-6.94a0.4 0.4 0 0 0-0.47-0.64c-5.1 2.7-7.15 6.67-8.02 12a0.79 0.78 14.6 0 1-1.05 0.61l-3.41-1.24a1.17 1.17 0 0 1-0.77-1.22q0.43-4.4 4.05-8.96 0.35-0.44-0.22-1.11 3.06-3.49 8.09-3.97 4.35-0.41 6.24-1.61 8.06 0.45 15.8 4.07a0.4 0.4 0 0 0 0.43-0.66q-2.42-2.11-5.21-3.77-2.36-1.41-8.65-2.79-4.07-9.2-4.85-12.16c-1.4-5.3-3.42-11.19-4.57-16.25-3.07-13.55-4.96-27.97-4.6-42.07q0.12-4.66 0.18-9.51 6.33-1.97 11.49-6.41-0.09 13.13 3.95 23.23 7.32 18.28 26.33 23.42 11.85 3.19 24.59 0.87c18.69-3.41 29.86-16.74 32.98-34.89q4.33-25.14-5.66-49.61c-5.07-12.42-14.15-22.43-27.21-26.09-2.91-0.82-6.52-1.06-9.82-1.58q-0.42-2.92 3.4-2.95 23.91-0.2 45.05-7.27a0.63 0.63 0 0 0 0.42-0.69l-0.14-0.98q0.89 2.57 1.61 3.99c3.8 7.59 9.57 17.96 13.34 27.39q2.98 7.46 5.19 13.09 3.33 8.48 5.66 26.26z"/> </g> <g fill="#fdf37f"> <path d="m235.58 180.43q-1.35 3.24 2.71 6.55 4.98 4.05 9.73 3.64l0.06 5.44-1.9 0.52a2.59 2.58 13.3 0 0-1.25 0.77q-1.87 2.05-2.84 2.74-10.88 7.72-22.7 9.31-10.07 1.35-20.54-1.17-8.58-2.52-9.1 7.22a0.57 0.57 0 0 0 1.04 0.35l1.79-2.62a0.84 0.83-55.4 0 1 1.17-0.22c18.34 12.62 41.49 6.79 55.71-9.36a0.57 0.56 45.3 0 1 0.86 0.01c12.96 15.33 37.35 22.7 54.69 9.52a0.86 0.85-36.4 0 1 1.21 0.18l1.85 2.55a0.58 0.58 0 0 0 1.05-0.32q0.22-7.46-7.12-8.25-1.92-0.21-2.23 1.29-6.13 1.34-14.27 1.12-12.29-0.33-22.21-5.98-5.98-3.41-9.45-7.55a0.91 0.9-22.2 0 0-0.77-0.32l-1.3 0.13 0.25-5.06q2.1 0.61 3.66-0.22c4.66-2.5 10.17-5.72 10.51-12.12q1.45-2.11 2.03-4.56a0.55 0.55 0 0 1 0.61-0.42q4.83 0.6 7.82 1.04 16.56 2.46 30.77 10.26a0.12 0.12 0 0 1-0.02 0.22l-17.16 5.21a0.27 0.27 0 0 0-0.18 0.34l0.08 0.28a0.16 0.14 71.5 0 0 0.18 0.1l17.68-4.63a4.33 4.33 0 0 1 3.88 0.89l6.41 5.42a0.71 0.71 0 0 1-0.52 1.25q-6.83-0.59-20.66 0.83a0.07 0.07 0 0 0-0.05 0.05l-0.12 0.36a0.19 0.19 0 0 0 0.19 0.24l21.51-0.56a4.67 4.66-15 0 1 4.21 2.43l4.4 8.08a1 1 0 0 1-1.17 1.43q-12.18-3.8-25.1-5.75-6.01-0.91-11.26-1.15a0.27 0.27 0 0 0-0.28 0.27v0.25a0.05 0.04-90 0 0 0.04 0.05q19.36 2.24 38.33 8.18a1.28 1.27-85.5 0 1 0.87 1.02q2.41 15.46-7.53 27.2-7.68 9.07-18.41 14.63l-2.48-0.42a1.15 1.14-53 0 0-0.69 0.1q-2.13 1.01-4.13 1.51-9.17 2.31-12.96 3.16-11.36 2.56-26.51 2.89a1.47 1.46 89.2 0 1-1.49-1.46q0-1.93-1.03-4.76a1.57 1.57 0 0 1 0.48-1.74c3.98-3.27 7.3-6.71 4.12-11.91q2.08-6.78-3.09-10.39c-10.47-7.3-28.9 2.54-37.16 9.84a0.58 0.58 0 0 1-0.93-0.24c-3.34-9.29-11.57-17.54-22.03-16.25-3.65 0.45-8.17 2.99-8.3 7.2q-0.1 3.23 1.33 4.8 1.87 2.05 3.12 3.36-1.5 5.13 2.05 11a0.68 0.68 0 0 1 0.04 0.64q-0.28 0.61-0.98 0.42c-13.8-7.87-24.57-21.62-22.68-38.16a1.15 1.12-6.8 0 1 0.76-0.94q20.07-6.99 41.18-9.7a0.19 0.19 0 0 0 0.17-0.2 0.24 0.24 0 0 0-0.23-0.24q-2.16-0.1-3.88 0.1-18.6 2.2-36.81 8.26a0.26 0.25 1.5 0 1-0.32-0.33q2.69-7.14 7.4-12.29a2.15 2.12 21.4 0 1 1.63-0.7l24.66 0.47a0.03 0.03 0 0 0 0.03-0.03v-0.31a0.2 0.19-86.8 0 0-0.17-0.2q-10.82-1.46-22.37-1.23a0.89 0.88-63.4 0 1-0.53-1.6l7.16-5.19a4.98 4.96 34.5 0 1 4.24-0.78l18.2 4.99a0.17 0.16 17.2 0 0 0.2-0.1l0.12-0.4a0.19 0.18-74.1 0 0-0.12-0.23l-18.27-5.69a0.18 0.18 0 0 1-0.03-0.33q13.9-7.14 29.8-9.73 2.49-0.41 9.01-1.34a0.53 0.53 0 0 1 0.6 0.42q0.81 4.01 3.73 6.62z"/> <path d="m416.82 259.39q5.54 3.38 6.16 10.21-6.41 6.97-14.23 7-4.12 0.02-8.25-0.08-6.12-0.15-11.29 3.58c1.62-8.94-9.61-3.09-9.05-11.1q0.29-4.05 1.8-7.23 7-3.04 11.11-4.21 10.89-3.08 23.75 1.83z"/> <path d="m210.18 345.06q1.93 1.1 3.38-0.51c7.74-8.59 13.03-19.22 17.11-31 1.89-5.45 2.66-10.15 4.05-15.29q0.81-2.98 2.93-4.1 1.91-1.01 6.05-2.58 4.64-1.77 4.95-5.24c34.35-3 46.1 32.76 46.4 59.94q0.14 12.82-2.67 21.28-7.87 23.77-32.62 27.02c-8.47 1.11-19.29 0.29-27.22-3.46-18.01-8.53-23.5-27.24-22.36-46.06z"/> </g> <g fill="#fa9084"> <path d="m175.98 82.36q1.13 0.82 2.07 1.84 11.88 12.84 19.15 28.65a0.19 0.19 0 0 1-0.25 0.25l-6.68-3.18a0.68 0.62 55.9 0 0-0.29-0.07h-3.82a0.55 0.55 0 0 0-0.44 0.87l4.84 6.66a0.3 0.3 0 0 1-0.26 0.47q-3.19-0.18-4.23 1.42a1.59 1.32 35.9 0 0 0.49 1.93q2.79 2.13 4.26 3.36a0.49 0.49 0 0 1-0.07 0.79q-5.65 3.44-8.72 9.42-0.18 0.35-0.02 0.94 0.03 0.42-0.21 0.84a0.28 0.24-7.2 0 1-0.09 0.1l-2.28 1.65a0.82 0.81 64.8 0 1-1.27-0.46q-5.32-21.26-3.7-46.32 0.12-1.79 0.16-7.32a1.19 1.18-22.2 0 1 0.36-0.85l1-0.99z"/> <path d="m326.15 82.48 0.46 0.53a1.6 1.58-66.6 0 1 0.36 0.92c0.32 6.19 1.43 11.06 1.14 16.59-0.13 2.4 0.23 8.31-0.56 12.53q-0.43 2.34-0.55 4.04-0.69 10.41-3.18 21.08a0.53 0.52 13.5 0 1-0.64 0.39q-1.85-0.47-2.61-2.3-2.76-7.17-9.05-10.94a0.65 0.64-43.6 0 1 0.03-1.12q2.54-1.36 4.62-3.58a0.86 0.86 0 0 0 0.16-0.95q-0.92-2.07-4.11-1.79a0.45 0.45 0 0 1-0.41-0.7l4.42-6.49a0.67 0.66-74.7 0 0-0.59-1.04l-3.27 0.23a0.98 0.95 30 0 0-0.36 0.09l-6.99 3.12a0.14 0.14 0 0 1-0.19-0.19q7.97-17.12 21.32-30.42z"/> <path d="m264.79 173.78q0.06 2.34-2.54 4.49-3.57 2.94-8.4 5.31c-2.1 1.03-3.89 1.41-6.09 0.53q-6.75-2.71-11.16-7.19-1.11-1.13-1.36-2.86 4.19-1.4 6.74-1.89 10.1-1.92 20.01 0.94 1.11 0.32 2.8 0.67z"/> </g> <g fill="#fdc23e"> <path d="m336.99 179.74q0.32-2.34-0.95-4.74-1.75-3.28-1.86-3.56-6.75-16-8.57-20.77c-1.54-4.06-2.69-5.79-4.83-9.78q-0.59-1.1-1.82-3.93-0.8-1.81-1.92-3.9l3.53 3.2q0.76 1.83 2.61 2.3a0.53 0.52 13.5 0 0 0.64-0.39q2.49-10.67 3.18-21.08 0.12-1.7 0.55-4.04c0.79-4.22 0.43-10.13 0.56-12.53 0.29-5.53-0.82-10.4-1.14-16.59a1.6 1.58-66.6 0 0-0.36-0.92l-0.46-0.53q0.07-0.2 0.07-0.34a0.26 0.26 0 0 0-0.41-0.22l-4.78 3.21q-0.86-1.27-1.51-1-1.74 0.71-5.67 4.92a2.8 1.41-42.3 0 1-0.29 0.27q-4.76 4.02-5.79 5.21-5.57 6.43-10.76 12a5.3 4.92-10.9 0 0-0.58 0.79q-1.88 3.26-4.46 6.38a1.57 1.45-48.4 0 0 0.04 2.05q0.49 0.46-0.26 0.96l-5.52-2.05a0.22 0.22 0 0 1-0.09-0.35c10.09-11.93 20.58-22.85 33.02-32.13q4.63-3.45 8.92-5.35a0.7 0.7 0 0 1 0.96 0.45q1.06 3.79 1.63 8.23 1.67 13.01 0.87 27.31-0.9 15.91-4.1 31.87a0.41 0.41 0 0 1-0.72 0.18l-3.4-4.1a0.28 0.27-39.7 0 0-0.38-0.03l-0.27 0.23a0.42 0.42 0 0 0-0.09 0.55q5.99 9.45 8.98 15.19 7.6 14.61 11.64 21.95a0.27 0.27 0 0 1-0.2 0.4l-6.01 0.68z"/> <path d="m211.58 116.37q-3.59-7-6.79-10.41-4.78-5.1-9.26-10.47-2-2.41-11.15-10.14-0.99-0.84-2.58 0.2l-5.98-4.19a0.26 0.26 0 0 0-0.39 0.32q0.14 0.32 0.55 0.68l-1 0.99a1.19 1.18-22.2 0 0-0.36 0.85q-0.04 5.53-0.16 7.32-1.62 25.06 3.7 46.32a0.82 0.81 64.8 0 0 1.27 0.46l2.28-1.65a0.28 0.24-7.2 0 0 0.09-0.1q0.24-0.42 0.21-0.84 0.47-0.03 0.93-0.05l-20.41 43.52a0.78 0.77 12.7 0 1-0.72 0.45l-1.5-0.03q-1.59-0.01-2.75-0.59a0.52 0.52 0 0 1-0.22-0.71q7.1-12.95 14.24-25.08c2.08-3.53 5.73-8.25 7.9-12.48a0.25 0.25 0 0 0-0.38-0.31l-3.65 3.03a0.5 0.5 0 0 1-0.8-0.29q-1.48-7.25-2.74-16.02c-0.79-5.46-0.84-8.96-1.32-15.16q-1.44-18.82 2.07-33.66 0.17-0.72 0.29-0.9a1.03 1.02-59.6 0 1 1.33-0.35q8.12 4.24 15.33 10.33 14.43 12.2 26.22 26.58a0.54 0.53 60 0 1-0.22 0.84l-4.03 1.54z"/> <path d="m292.21 118.34q-3.12 0.49-4.52 0.29c-5.98-0.85-14.15-2.29-21.03-1.94q-2.56 0.13-8.65-0.41-6.45-0.57-13.35-0.29-1.88 0.08-13.3 1.01-7 0.58-16.91 2.38-2.11 0.38-3.08-1.1 25.9-6.3 48.88-4.97 13.19 0.76 31.96 5.03z"/> <path d="m161.42 181.18-9.01 14.19-7.84 1.24a0.31 0.31 0 0 1-0.28-0.52q6.19-6.72 10.99-14.68a1.61 1.61 0 0 1 1.58-0.77l4.56 0.54z"/> <path d="m347.63 195.49-8.97-14.14 4.97-0.62a1.08 1.08 0 0 1 1.07 0.53q4.6 7.79 10.72 14.79a0.24 0.24 0 0 1-0.21 0.4l-7.58-0.96z"/> <path d="m150.14 197.39q-4.29 3.18-8.55 6.2-1.83 1.29-9.51 2.79-0.27-0.14-0.45-0.42a0.46 0.46 0 0 1 0.19-0.68c3.9-1.73 6.55-3.77 9.51-6.24a3.08 3.07 21.1 0 1 1.56-0.69l7.25-0.96z"/> <path d="m367.23 206.93q-10.46-2.17-17.28-9.54l6.69 0.88a2.45 2.45 0 0 1 1.23 0.53c3.63 2.95 6.22 5.19 9.85 6.55a0.58 0.57-69.5 0 1 0.33 0.74q-0.27 0.69-0.82 0.84z"/> <path d="m377.73 267.39q-4.26 3.35-6.92 8.27c-1.66 3.08-3.69 7.54-4.33 11.59q-1.49 9.47-1.38 16.81c0.15 9.92 2.2 19.3 2.07 29.32q-0.1 8.19-0.55 10.61-1.39 7.6-3.37 12.24-4.42 10.38-13.98 15.78 12.27-10.97 13.66-27.3 0.76-8.95-0.05-15.69-1.65-13.66-2.53-22.01-0.59-5.52 0.02-13.25c1.09-13.82 7.34-26.74 19.3-34.01a0.29 0.29 0 0 1 0.43 0.34l-2.37 7.3z"/> <path d="m191.35 271.41q-3.27 5.37-6.08 11.07-2.75 5.56-5.95 11.99-1.71 3.43-1.89 4.11c-1.44 5.61-4.09 10.97-5.23 16.38q-1.83 8.8 0.15 17.04 1.06 3.23 0.72 4.34c-7.99-9.98-5.34-23.88-0.61-34.66q7.72-17.58 19.07-33.85l-0.18 3.58z"/> <path d="m205.63 270.02q-3.72 13.32-10.54 24.68c-2.69 4.49-5.82 7.3-9.71 11.17q-2.28 2.27-4.14 2.13c9.92-12.4 17.28-23.19 22.67-37.08q0.41-1.05 1.72-0.9z"/> <path d="m301.62 269.97q9.11 14.21 16.7 29.22 4.98 9.87 7.98 20.47 3.43 12.11 1.35 23.11-2.33-17.78-5.66-26.26-2.21-5.63-5.19-13.09c-3.77-9.43-9.54-19.8-13.34-27.39q-0.72-1.42-1.61-3.99-0.8-1.51-0.23-2.07z"/> <path d="m196.47 354.99q-0.06 4.85-0.18 9.51c-0.36 14.1 1.53 28.52 4.6 42.07 1.15 5.06 3.17 10.95 4.57 16.25q0.78 2.96 4.85 12.16-0.88-0.08-1.31-0.28-0.24-0.11-0.74-1.08c-12.52-24.47-19.32-50.49-18-78.09q2.68 0.63 6.21-0.54z"/> <path d="m207.94 438.13q-1.89 1.2-6.24 1.61-5.03 0.48-8.09 3.97-4.02 2.74-6.01 6.37a0.34 0.33-23.7 0 1-0.62-0.24q2-8.01 9.27-10.36 5.39-1.75 11.69-1.35z"/> </g> <g fill="#f26e15"> <path d="m140.87 219.61-1.98 1.07a0.61 0.61 0 0 1-0.76-0.14l-1.38-1.66a0.14 0.13 73.8 0 1 0.12-0.22l3.91 0.46a0.26 0.26 0 0 1 0.09 0.49z"/> <path d="m301.62 269.97q-0.57 0.56 0.23 2.07l0.14 0.98a0.63 0.63 0 0 1-0.42 0.69q-21.14 7.07-45.05 7.27-3.82 0.03-3.4 2.95-12.36 0.16-22.44 6.65a0.44 0.43-16.5 0 1-0.67-0.36v-2.06a1.69 1.68-11.2 0 1 1.05-1.56q3.77-1.53 6.54-4.86a1.15 1.14 20.3 0 1 0.9-0.41q0.32 0.01 2.12 0.29c8.36 1.3 14.39-6.61 14.57-14.45a0.69 0.69 0 0 1 0.65-0.67c18.98-1.36 36.81-6.02 52.2-15.72q3.97-2.51 9.19-7.01 3.42-1.07 7.27-3.01c5.78-2.92 10.05-5.37 15.57-9.63q7.88-6.08 17.09-11.04 1.18-0.7 3.12 0.57a0.4 0.4 0 0 1 0.04 0.64q-12.75 11.5-25.74 21.04-17.71 13.01-39.63 21.86-10.47 4.23-12.4 4.99a0.44 0.44 0 0 0-0.15 0.72q0.36 0.35 1.14 0.23 7.96-1.23 15.21-3.61a0.72 0.71 64.4 0 1 0.82 0.29l2.05 3.15z"/> <path d="m141.65 220.88 3.8 1.57a5.65 5.54 73.6 0 1 1.2 0.67q7.41 5.46 14.86 10.88 8.22 5.98 21.29 11.26 7.22 5.44 16.17 10a1.58 1.56-78.8 0 1 0.86 1.3l0.5 7.18a0.16 0.16 0 0 1-0.22 0.16q-34.18-14.57-59.9-41.34a0.66 0.66 0 0 1-0.03-0.88q0.42-0.5 1.47-0.8z"/> <path d="m254.14 232.69q2.26 3.65-0.25 5.95-6.58 6.04-16.48 4.21l12.7-6.28a3.35 3.29-80.7 0 0 0.94-0.69l3.09-3.19z"/> <path d="m251.62 264.12q1.28 13.5-10.87 14.13a0.64 0.64 0 0 1-0.67-0.58c-0.37-4.04 2.84-3.55 5.06-5.39a0.59 0.59 0 0 0-0.56-1.01q-4.11 1.33-4.61-0.6l11.65-6.55z"/> <path d="m197.37 277.56-0.84-3.37a1.49 1.47 12.9 0 0-0.5-0.78q-2.27-1.82-4.68-2l0.18-3.58q0.45-1.26 1.77-2.41a1.25 1.23-55.1 0 1 1.22-0.23l6.16 2.24a0.73 0.73 0 0 1 0.43 0.96l-3.74 9.17z"/> <path d="m237.65 270.16c0.38 7.89-4.72 13.1-11.88 14.93a0.59 0.59 0 0 0-0.05 1.13l0.59 0.21a1.07 1.06-74.5 0 1 0.68 1.21c-3.69 18.52-10.65 38.4-25.72 50.02-7.91 6.1-21.17 6.49-28.2-1.32q0.34-1.11-0.72-4.34 13.55 4.35 24.47-3.7 7.88-5.8 12.14-12.85 8.89-14.69 12.84-31.47a3.29 3.28 83.1 0 1 1.68-2.15c2.58-1.34 7.16-2.81 9.43-6.4q1.93-3.06 4.74-5.27z"/> <path d="m323.79 377.96-0.49 7.87a1.53 1.52-81.4 0 0 1.16 1.58c19.97 4.82 39.47-0.9 49.24-19.9 7-13.6 5.63-30.35 3.3-45.01q-1.66-10.52-0.21-21.96 1.45-11.43 10.14-17.97 1.38 3.09 4.21 4.85a0.39 0.39 0 0 1 0.02 0.65q-6.33 4.51-8.4 10.72-3.17 9.51-1.51 21.09 1.88 13.21 3.2 25.63 0.58 5.5-0.86 14.62c-5.13 32.55-38.1 45.92-66.96 32.98a0.72 0.71-75.1 0 1-0.42-0.74l1.81-15.27a0.47 0.47 0 0 1 0.57-0.4l5.2 1.26z"/> <path d="m207.96 348.58q-5.16 4.44-11.49 6.41-3.53 1.17-6.21 0.54l1.09-9.08a1.01 1.01 0 0 1 0.79-0.86q9.21-2.01 15.95-8.7a0.39 0.39 0 0 1 0.66 0.3l-0.79 11.39z"/> <path d="m237.32 418.78-0.18-1.63a1.14 1.14 0 0 0-0.44-0.79q-5.01-3.79-10.15-7.38-1.44-1.02-2.08-4.21l13.78 3.65a0.54 0.53-79 0 1 0.39 0.59l-1.32 9.77z"/> <path d="m280.36 404.93c-1.01 5.1-8.22 8.98-12.41 11.31l-0.88-7.35a0.55 0.54-7.7 0 1 0.46-0.6q6.64-0.99 12.83-3.36z"/> <path d="m237.45 448.03c0.35 2.29 0.81 5.73-2.21 6.5q-10.02 2.52-20.37 2.6a0.5 0.5 0 0 1-0.51-0.51q0.02-2.65 0.67-4.47 9.28 0.26 17.35-1.99 2.12-0.58 5.07-2.13z"/> <path d="m289.74 452.6 0.55 4.17a0.48 0.47 87.9 0 1-0.49 0.54q-6.68-0.38-14.96-1.68-3.32-0.52-6.05-1.71a1.05 1.04 4.2 0 1-0.61-0.7q-0.61-2.31-0.19-4.83 10.63 3.6 21.75 4.21z"/> <path d="m199.15 451.21q2.58 0.98 4.66 1.02 4.66 0.09 8.2 0.96l-0.6 3.72a0.47 0.47 0 0 1-0.46 0.39h-12.04a0.76 0.75-0.8 0 1-0.76-0.73q-0.07-2.75 1-5.36z"/> <path d="m305.85 452.65 0.73 3.54a0.58 0.58 0 0 1-0.53 0.69l-11.91 0.82a0.68 0.68 0 0 1-0.71-0.54l-1.05-5.02 13.47 0.51z"/> </g> <g fill="#d2ebf0"> <path d="m308.11 146.37q0.98 4.36-0.42 8.61c-7.92 23.97-44.86 19.25-48.77-4.7l10.06 9.41a3.25 3.22-10.3 0 0 0.73 0.5c9.09 4.41 19.73 4.66 28.05-1.14q2.35-1.63 5.54-6 2.29-3.15 4.81-6.68z"/> <path d="m240.8 152.66q-5.17 15.05-21.1 17.78-7.78 1.34-15.48-2.15-12-5.44-12.4-19.45 2.18-0.63 2.72 0.45c6.67 13.49 19.9 17.07 33.73 11.69q6.23-2.42 9.88-8.6a0.66 0.64 1 0 1 0.29-0.27q0.92-0.44 2.36 0.55z"/> </g> <g fill="#edda63"> <path d="m266.19 178.58c-0.34 6.4-5.85 9.62-10.51 12.12q-1.56 0.83-3.66 0.22-0.41-1.51-0.05-2.76a0.99 0.99 0 0 1 0.62-0.66q8.01-2.83 13.6-8.92z"/> <path d="m248.02 190.62q-4.75 0.41-9.73-3.64-4.06-3.31-2.71-6.55 5.62 4.52 12.03 7.11a0.92 0.92 0 0 1 0.56 0.69q0.18 1.04-0.15 2.39z"/> <path d="m299.77 208.58 3.48 1.33a0.6 0.6 0 0 1 0.11 1.07c-17.09 11.11-39.16 3.73-51.32-10.73q-1.05-1.24-0.27-4.27l1.3-0.13a0.91 0.9-22.2 0 1 0.77 0.32q3.47 4.14 9.45 7.55 9.92 5.65 22.21 5.98 8.14 0.22 14.27-1.12z"/> <path d="m248.08 196.06q0.72 3.53-2.58 6.67c-13.52 12.86-33.2 18.27-49.67 8.41a0.63 0.63 0 0 1 0.11-1.13q1.88-0.67 2.91-1.78 10.47 2.52 20.54 1.17 11.82-1.59 22.7-9.31 0.97-0.69 2.84-2.74a2.59 2.58 13.3 0 1 1.25-0.77l1.9-0.52z"/> <path d="m213.69 243.17q-0.54-1-0.77-2.37a2.89 2.85 26.1 0 0-0.28-0.8c-1.36-2.46-2.79-5.34-4.58-7.28q-7.09-7.67-18.61-3.44 3.95-5.23 9.76-4.01 4.96 1.04 9.36 5.82 4.06 4.41 5.82 10.48 0.17 0.59-0.7 1.6z"/> <path d="m253.49 231.96q-0.09 0.1-0.18 0.22a0.22 0.21 23.4 0 1-0.22 0.08q-7.22-1.49-14.14 0.94-4.12 1.46-6.68 2.28-2.96 0.95-6.36 3.02-5.74 3.5-11.5 7.64 2.54-3.03 8.6-7.61 9.4-7.1 21.05-8.93c2.62-0.41 7.54-0.08 9.43 2.36z"/> <path d="m192.1 249.29q0.7 0.19 0.98-0.42a0.68 0.68 0 0 0-0.04-0.64q-3.55-5.87-2.05-11 7.21 6.83 8.82 15.95a0.29 0.28-80.5 0 1-0.42 0.3l-7.29-4.19z"/> <path d="m258.05 238.91c3.18 5.2-0.14 8.64-4.12 11.91a1.57 1.57 0 0 0-0.48 1.74q1.03 2.83 1.03 4.76a1.47 1.46 89.2 0 0 1.49 1.46q15.15-0.33 26.51-2.89 3.79-0.85 12.96-3.16 2-0.5 4.13-1.51a1.15 1.14-53 0 1 0.69-0.1l2.48 0.42q-1.45 1.04-5.15 2.78-14.86 6.98-30.42 9.03-10.87 1.43-11.26 1.46a0.76 0.76 0 0 1-0.78-0.55q-1.18-4.16-4.29-7.17a1.37 1.37 0 0 1-0.4-1.16q0.76-5.63-3.23-9.47a0.5 0.5 0 0 1 0.22-0.85c4.41-1.2 8.13-2.57 10.62-6.7z"/> <path d="m422.98 269.6c1.13 8.14-3.07 12.63-10.26 14.69q-1.75 0.51-7.92 0.46-5.25-0.04-9.93 1.05a2.74 2.62-44.2 0 1-1.23 0.01q-4.93-1.13-4.43-5.71 5.17-3.73 11.29-3.58 4.13 0.1 8.25 0.08 7.82-0.03 14.23-7z"/> <path d="m248.65 286.34q-0.31 3.47-4.95 5.24-4.14 1.57-6.05 2.58-2.12 1.12-2.93 4.1c-1.39 5.14-2.16 9.84-4.05 15.29-4.08 11.78-9.37 22.41-17.11 31q-1.45 1.61-3.38 0.51l0.98-10.57a3.11 3.1 66.8 0 1 0.63-1.58q12.25-15.97 16.61-35.99 0.58-2.63 2.66-4.1 7.94-5.63 17.59-6.48z"/> </g> <g fill="#020202"> <path d="m221.43 192.03a1.15 1.15 0 0 1-1.15 1.15 1.15 1.15 0 0 1-1.15-1.15 1.15 1.15 0 0 1 1.15-1.15 1.15 1.15 0 0 1 1.15 1.15z"/> <path d="m281.17 192a1.11 1.11 0 0 1-1.11 1.11 1.11 1.11 0 0 1-1.11-1.11 1.11 1.11 0 0 1 1.11-1.11 1.11 1.11 0 0 1 1.11 1.11z"/> <path d="m230.81 195.65a1.21 1.21 0 0 1-1.21 1.21 1.21 1.21 0 0 1-1.21-1.21 1.21 1.21 0 0 1 1.21-1.21 1.21 1.21 0 0 1 1.21 1.21z"/> <path d="m272.4 195.72a1.18 1.18 0 0 1-1.18 1.18 1.18 1.18 0 0 1-1.18-1.18 1.18 1.18 0 0 1 1.18-1.18 1.18 1.18 0 0 1 1.18 1.18z"/> <path d="m213.14 196.07a1.09 1.09 0 0 1-1.09 1.09 1.09 1.09 0 0 1-1.09-1.09 1.09 1.09 0 0 1 1.09-1.09 1.09 1.09 0 0 1 1.09 1.09z"/> <path d="m290.02 196.03a1.09 1.09 0 0 1-1.09 1.09 1.09 1.09 0 0 1-1.09-1.09 1.09 1.09 0 0 1 1.09-1.09 1.09 1.09 0 0 1 1.09 1.09z"/> <path d="m221.35 200.17a1.16 1.16 0 0 1-1.16 1.16 1.16 1.16 0 0 1-1.16-1.16 1.16 1.16 0 0 1 1.16-1.16 1.16 1.16 0 0 1 1.16 1.16z"/> <path d="m281.26 200.06a1.11 1.11 0 0 1-1.11 1.11 1.11 1.11 0 0 1-1.11-1.11 1.11 1.11 0 0 1 1.11-1.11 1.11 1.11 0 0 1 1.11 1.11z"/> <path d="m250.18 218.68c2.72 0.02 5.37-0.75 7.72-1a0.43 0.43 0 0 1 0.35 0.75q-3.43 3.25-8.09 3.23-4.65-0.03-8.04-3.33a0.43 0.43 0 0 1 0.35-0.74c2.36 0.28 5 1.07 7.71 1.09z"/> <path d="m254.44 372.02q1.63 0.16 1.49 2.32c-0.43 6.32-9.55 4.34-7.43-1.59q1.35-3.77 5.37-4.47a0.49 0.49 0 0 1 0.29 0.92q-2.87 1.38-3.9 4.06a2 1.89-75.7 0 0 1.49 2.69c2.44 0.29 2.36-1.55 2.08-3.28a0.56 0.56 0 0 1 0.61-0.65z"/> </g> </svg>