<svg width="56" height="56" viewBox="0 0 56 56" fill="none" xmlns="http://www.w3.org/2000/svg">
<g clip-path="url(#clip0_5246_470)">
<rect width="56" height="56" rx="4" fill="#FFC9C1"/>
<g clip-path="url(#clip1_5246_470)">
<mask id="mask0_5246_470" style="mask-type:alpha" maskUnits="userSpaceOnUse" x="-152" y="2" width="307" height="52">
<path d="M-106.987 27.6147H-152V28.3792H-106.987C-105.67 28.9151 -102.775 29.9731 -101.739 29.9188C-100.443 29.8509 -94.4812 28.2205 -92.3429 28.8998C-90.2046 29.5791 -88.779 30.8698 -87.5479 32.4322C-86.3167 33.9946 -86.1871 34.7419 -85.0856 34.674C-83.984 34.606 -83.1416 33.3833 -82.2993 32.0246C-81.4569 30.666 -80.1609 28.8998 -76.9211 28.8998C-73.6812 28.8998 -71.7372 31.7529 -70.7005 34.674C-69.6637 37.595 -69.0157 38.7498 -68.3029 38.8857C-67.5902 39.0215 -66.359 36.2363 -65.1927 34.1305C-64.0263 32.0246 -62.7304 29.9188 -58.4537 29.9188C-54.177 29.9188 -52.1035 33.0436 -50.8724 38.3422C-49.6412 43.6408 -50.03 52.1321 -47.6973 53.0152C-45.3646 53.8983 -43.5502 39.6328 -42.6431 36.0325C-41.7359 32.4322 -40.0511 28.8998 -38.2368 28.8998C-36.4225 28.8998 -36.4225 29.3754 -35.7745 29.9188C-35.1265 30.4622 -34.9969 31.2095 -33.9602 31.0057C-32.9234 30.8019 -32.405 28.8998 -30.3315 28.8998C-28.258 28.8998 -27.0916 30.2584 -26.5084 31.617C-25.9252 32.9757 -25.7308 33.655 -24.5645 33.655C-23.3981 33.655 -21.195 28.8998 -19.1863 28.8998C-17.1776 28.8998 -16.724 29.5791 -15.104 32.636C-14.1329 34.4685 -13.8081 36.576 -12.7065 36.576C-11.6049 36.576 -11.4106 33.5191 -10.6978 32.0246C-9.985 30.5301 -9.27223 29.9188 -8.62425 29.9188C-7.97627 29.9188 -6.09714 35.0136 -5.06038 37.9346C-4.02362 40.8556 -4.41241 41.467 -3.31084 41.467C-2.20927 41.467 -1.1725 34.7419 0.901016 32.0246C2.97453 29.3074 3.94649 29.9188 4.65927 29.9188C5.37206 29.9188 8.15837 32.0926 9.06554 35.0136C9.97269 37.9346 12.3054 47.0373 13.8605 47.0373C15.4157 47.0373 16.9061 35.6929 18.526 33.655C20.146 31.617 21.2475 27.9488 24.4226 30.5981C27.5977 33.2474 28.2456 36.576 30.4488 36.576C32.6519 36.576 36.0214 28.8998 39.0021 28.8998C43.7971 28.8998 42.1771 34.0625 44.1859 34.0625C46.1946 34.0625 45.5466 29.9188 47.685 29.9188C49.8233 29.9188 51.8969 35.4212 55.2015 35.4212C58.5062 35.4212 58.5062 30.5981 60.8389 30.5981C61.9405 30.5981 62.0701 32.0246 63.4956 32.0246C64.9212 32.0246 65.1156 28.8998 68.4202 28.8998C71.7249 28.8998 73.2153 32.0246 75.2888 32.0246C77.3623 32.0246 78.0751 29.9188 80.4726 29.9188C82.8701 29.9188 83.4533 34.8098 86.3044 34.8098C89.1555 34.8098 89.6739 28.8998 94.4689 28.8998C99.264 28.8998 97.644 32.5001 101.791 32.5001C105.938 32.5001 104.901 28.2813 109.826 28.2813H154.666V27.7127H109.826C104.901 27.7127 105.938 23.4938 101.791 23.4938C97.644 23.4938 99.264 27.0941 94.4689 27.0941C89.6739 27.0941 89.1555 21.1842 86.3044 21.1842C83.4533 21.1842 82.8701 26.0752 80.4726 26.0752C78.0751 26.0752 77.3623 23.9693 75.2888 23.9693C73.2153 23.9693 71.7249 27.0941 68.4202 27.0941C65.1156 27.0941 64.9212 23.9693 63.4956 23.9693C62.0701 23.9693 61.9405 25.3959 60.8389 25.3959C58.5062 25.3959 58.5062 20.5728 55.2015 20.5728C51.8968 20.5728 49.8233 26.0752 47.685 26.0752C45.5466 26.0752 46.1946 21.9314 44.1859 21.9314C42.1772 21.9314 43.7971 27.0941 39.0021 27.0941C36.0214 27.0941 32.6519 19.418 30.4488 19.418C28.2456 19.418 27.5977 22.7466 24.4226 25.3959C21.2475 28.0452 20.1459 24.3769 18.526 22.339C16.9061 20.3011 15.4157 8.95664 13.8605 8.95664C12.3054 8.95664 9.9727 18.0594 9.06554 20.9804C8.15837 23.9014 5.37206 26.0752 4.65927 26.0752C3.9465 26.0752 2.97455 26.6866 0.901016 23.9693C-1.1725 21.2521 -2.20927 14.527 -3.31084 14.527C-4.4124 14.527 -4.02361 15.1383 -5.06038 18.0594C-6.09715 20.9804 -7.97627 26.0752 -8.62425 26.0752C-9.27223 26.0752 -9.985 25.4638 -10.6978 23.9693C-11.4106 22.4748 -11.6049 19.418 -12.7065 19.418C-13.8081 19.418 -14.1329 21.5255 -15.104 23.358C-16.724 26.4149 -17.1776 27.0941 -19.1863 27.0941C-21.195 27.0941 -23.3981 22.339 -24.5645 22.339C-25.7308 22.339 -25.9252 23.0183 -26.5084 24.3769C-27.0916 25.7355 -28.258 27.0941 -30.3315 27.0941C-32.405 27.0941 -32.9234 25.1921 -33.9602 24.9883C-34.9969 24.7845 -35.1265 25.5318 -35.7745 26.0752C-36.4225 26.6186 -36.4225 27.0941 -38.2368 27.0941C-40.0511 27.0941 -41.7359 23.5617 -42.6431 19.9614C-43.5502 16.3611 -45.3646 2.09563 -47.6973 2.97873C-50.03 3.86183 -49.6412 12.3532 -50.8724 17.6518C-52.1035 22.9504 -54.177 26.0752 -58.4537 26.0752C-62.7304 26.0752 -64.0263 23.9693 -65.1927 21.8635C-66.359 19.7576 -67.5902 16.9724 -68.3029 17.1083C-69.0157 17.2442 -69.6637 18.399 -70.7005 21.32C-71.7372 24.241 -73.6812 27.0941 -76.9211 27.0941C-80.1609 27.0941 -81.4569 25.3279 -82.2993 23.9693C-83.1416 22.6107 -83.984 21.3879 -85.0856 21.32C-86.1871 21.2521 -86.3167 21.9993 -87.5479 23.5617C-88.779 25.1241 -90.2046 26.4148 -92.3429 27.0941C-94.4812 27.7734 -100.443 26.1431 -101.739 26.0752C-102.775 26.0208 -105.67 27.0789 -106.987 27.6147Z" fill="#231F20"/>
</mask>
<g mask="url(#mask0_5246_470)">
<path d="M0.311035 -1V56.2744" stroke="#000000" stroke-opacity="1" stroke-width="1.5" stroke-miterlimit="10"/>
<path d="M2.71094 -1V56.2744" stroke="#000000" stroke-opacity="1" stroke-width="1.5" stroke-miterlimit="10"/>
<path d="M5.11108 -1V56.2744" stroke="#000000" stroke-opacity="1" stroke-width="1.5" stroke-miterlimit="10"/>
<path d="M7.51099 -1V56.2744" stroke="#000000" stroke-opacity="1" stroke-width="1.5" stroke-miterlimit="10"/>
<path d="M9.91089 -1V56.2744" stroke="#000000" stroke-opacity="1" stroke-width="1.5" stroke-miterlimit="10"/>
<path d="M12.311 -1V56.2744" stroke="#000000" stroke-opacity="1" stroke-width="1.5" stroke-miterlimit="10"/>
<path d="M14.7109 -1V56.2744" stroke="#000000" stroke-opacity="1" stroke-width="1.5" stroke-miterlimit="10"/>
<path d="M17.1108 -1V56.2744" stroke="#000000" stroke-opacity="1" stroke-width="1.5" stroke-miterlimit="10"/>
<path d="M19.511 -1V56.2744" stroke="#000000" stroke-opacity="1" stroke-width="1.5" stroke-miterlimit="10"/>
<path d="M21.9109 -1V56.2744" stroke="#000000" stroke-opacity="1" stroke-width="1.5" stroke-miterlimit="10"/>
<path d="M24.311 -1V56.2744" stroke="#000000" stroke-opacity="1" stroke-width="1.5" stroke-miterlimit="10"/>
<path d="M26.7109 -1V56.2744" stroke="#000000" stroke-opacity="1" stroke-width="1.5" stroke-miterlimit="10"/>
<path d="M29.1108 -1V56.2744" stroke="#000000" stroke-opacity="1" stroke-width="1.5" stroke-miterlimit="10"/>
<path d="M31.511 -1V56.2744" stroke="#000000" stroke-opacity="1" stroke-width="1.5" stroke-miterlimit="10"/>
<path d="M33.9109 -1V56.2744" stroke="#000000" stroke-opacity="1" stroke-width="1.5" stroke-miterlimit="10"/>
<path d="M36.3108 -1V56.2744" stroke="#000000" stroke-opacity="1" stroke-width="1.5" stroke-miterlimit="10"/>
<path d="M38.7109 -1V56.2744" stroke="#000000" stroke-opacity="1" stroke-width="1.5" stroke-miterlimit="10"/>
<path d="M41.1108 -1V56.2744" stroke="#000000" stroke-opacity="1" stroke-width="1.5" stroke-miterlimit="10"/>
<path d="M43.511 -1V56.2744" stroke="#000000" stroke-opacity="1" stroke-width="1.5" stroke-miterlimit="10"/>
<path d="M45.9109 -1V56.2744" stroke="#000000" stroke-opacity="1" stroke-width="1.5" stroke-miterlimit="10"/>
<path d="M48.3108 -1V56.2744" stroke="#000000" stroke-opacity="1" stroke-width="1.5" stroke-miterlimit="10"/>
<path d="M50.7109 -1V56.2744" stroke="#000000" stroke-opacity="1" stroke-width="1.5" stroke-miterlimit="10"/>
<path d="M53.1108 -1V56.2744" stroke="#000000" stroke-opacity="1" stroke-width="1.5" stroke-miterlimit="10"/>
<path d="M55.5107 -1V56.2744" stroke="#000000" stroke-opacity="1" stroke-width="1.5" stroke-miterlimit="10"/>
</g>
</g>
</g>
<defs>
<clipPath id="clip0_5246_470">
<rect width="56" height="56" rx="4" fill="white"/>
</clipPath>
<clipPath id="clip1_5246_470">
<rect width="236" height="60" fill="white" transform="translate(-117 -2)"/>
</clipPath>
</defs>
</svg>
