<svg width="861" height="170" viewBox="0 0 861 170" fill="none" xmlns="http://www.w3.org/2000/svg">
<path fill-rule="evenodd" clip-rule="evenodd" d="M558.742 85.3318C558.742 36.3514 593.626 0.0820312 635.9 0.0820312C654.616 0.0820312 666.626 5.62518 672.855 8.63568C676.789 10.4834 680.484 12.1081 681.87 12.1081C685.104 12.1081 687.413 9.79846 688.114 3.33146H693.896L693.434 30.3623L693.896 57.3931H688.114C683.495 25.52 665.48 7.02689 636.601 7.02689C596.174 7.02689 582.317 42.3724 582.317 85.3477C582.317 133.866 596.413 162.968 636.601 162.968C666.403 162.968 685.804 139.871 688.815 112.14H694.358L693.896 140.317L694.597 167.348H689.054L688.353 164.799C687.19 160.865 685.804 156.485 681.886 156.485C679.576 156.485 676.805 157.871 673.109 159.718C665.018 163.653 652.084 169.881 634.53 169.881C587.398 169.881 558.758 134.774 558.758 85.3318H558.742ZM836.793 34.0599V136.624C836.793 159.497 840.728 159.959 856.656 161.807L860.001 162.269V168.051L827.093 167.35H826.87L792.687 168.051V162.269L797.306 161.807C813.251 159.959 817.169 159.497 817.169 136.624V86.0348H741.971V136.624C741.971 159.497 745.905 159.959 761.833 161.807L766.453 162.269V168.051L732.27 167.35H732.047L701.703 168.051V162.269L706.322 161.807C722.267 159.959 722.347 159.497 722.347 136.624V34.0599C722.347 11.1865 722.267 10.7245 706.322 8.87681L701.703 8.41489V2.63281L732.047 3.33367H732.27L766.453 2.63281V8.41489L761.833 8.87681C745.889 10.7245 741.971 11.1865 741.971 34.0599V78.644H817.169V34.0599C817.169 11.1865 813.235 10.7245 797.306 8.87681L792.687 8.41489V2.63281L826.87 3.33367H827.093L860.001 2.63281V8.41489L856.656 8.87681C840.712 10.7245 836.793 11.1865 836.793 34.0599ZM0 161.917V167.7L38.0374 166.999H148.964L149.649 146.212L151.274 118.496H145.492C142.481 154.304 135.09 160.548 108.298 160.548H74.1635C56.6102 160.548 47.9769 157.075 47.9769 142.293V85.97H88.3717C98.9961 85.97 103.663 94.5077 103.663 116.919H109.445L108.744 81.7011L109.445 50.7519H103.663C102.516 73.6094 97.3873 78.4676 88.3717 78.4676H47.9769V9.67211H94.4405C128.623 9.67211 136.014 12.9056 140.41 40.8603H145.954L144.106 19.6115L143.644 2.98211H38.0374L0 2.28125V8.06332L4.61929 8.52525L5.50311 8.62737C20.8511 10.398 28.3369 11.2616 28.3369 33.7083V136.272C28.3369 158.719 20.8511 159.583 5.50309 161.353L4.61929 161.456L0 161.917ZM227.269 161.456L232.35 161.917V167.7L193.309 166.999L155.973 167.7V161.917L160.592 161.456L161.476 161.353C176.824 159.583 184.31 158.719 184.31 136.272V33.7083C184.31 11.2616 176.824 10.398 161.476 8.62737L160.592 8.52525L155.973 8.06332V2.28125L194.01 2.98211H237.559C274.752 2.98211 306.195 9.91104 306.195 48.2671C306.195 75.7598 285.169 94.2369 245.666 94.2369H203.95V136.288C203.95 159.162 208.569 159.624 227.285 161.471L227.269 161.456ZM245.651 87.308C277.524 87.308 284.23 72.7493 284.23 48.2671C284.23 13.1605 263.443 9.44911 249.123 9.44911H203.934V87.2921H245.651V87.308ZM308.629 84.8855C308.629 35.2202 359.999 0.0976562 429.877 0.0976562C499.772 0.0976562 551.126 34.9812 551.126 84.8855C551.126 134.79 499.756 169.896 429.877 169.896C359.999 169.896 308.629 134.551 308.629 84.8855ZM332.315 84.8695C332.315 134.583 367.931 163.063 429.877 163.063C491.808 163.063 527.137 134.344 527.137 84.8695C527.137 35.3954 491.808 6.91509 429.877 6.91509C367.947 6.91509 332.315 35.1565 332.315 84.8695Z" fill="#231F20"/>
</svg>
