<svg width="48" height="36" viewBox="0 0 48 36" fill="none" xmlns="http://www.w3.org/2000/svg">
<path fill-rule="evenodd" clip-rule="evenodd" d="M0 2C0 0.895431 0.895431 0 2 0H46C47.1046 0 48 0.895431 48 2C48 3.10457 47.1046 4 46 4H2C0.895431 4 0 3.10457 0 2ZM0 18C0 16.8954 0.895431 16 2 16H46C47.1046 16 48 16.8954 48 18C48 19.1046 47.1046 20 46 20H2C0.895431 20 0 19.1046 0 18ZM2 32C0.895431 32 0 32.8954 0 34C0 35.1046 0.895431 36 2 36H46C47.1046 36 48 35.1046 48 34C48 32.8954 47.1046 32 46 32H2Z" fill="#736868"/>
</svg>
