<svg width="32" height="32" viewBox="0 0 32 32" fill="none" xmlns="http://www.w3.org/2000/svg">
<g clip-path="url(#clip0_0_19)">
<path fill-rule="evenodd" clip-rule="evenodd" d="M14.4922 1.5C14.4922 0.671573 15.1638 0 15.9922 0C16.8206 0 17.4922 0.671573 17.4922 1.5V13.4019L27.8025 7.44922C28.5199 7.03501 29.4373 7.28082 29.8515 7.99826C30.2657 8.7157 30.0199 9.63308 29.3025 10.0473L18.9951 15.9983L29.3025 21.9492C30.0199 22.3634 30.2657 23.2808 29.8515 23.9983C29.4373 24.7157 28.5199 24.9615 27.8025 24.5473L17.4922 18.5946V30.5C17.4922 31.3284 16.8206 32 15.9922 32C15.1638 32 14.4922 31.3284 14.4922 30.5V18.598L4.18775 24.5473C3.47031 24.9615 2.55293 24.7157 2.13871 23.9983C1.7245 23.2808 1.97031 22.3634 2.68775 21.9492L12.9951 15.9983L2.68775 10.0473C1.97031 9.63308 1.7245 8.71569 2.13871 7.99825C2.55293 7.28082 3.47031 7.035 4.18775 7.44922L14.4922 13.3985V1.5Z" fill="#877A7A"/>
</g>
<defs>
<clipPath id="clip0_0_19">
<rect width="16" height="16" fill="white" transform="scale(2)"/>
</clipPath>
</defs>
</svg>
